<?xml version="1.0" encoding="UTF-8"?>
<svg version="1.1" viewBox="0 0 1024 1024" width="1024" height="1024" xmlns="http://www.w3.org/2000/svg">
<path transform="translate(227)" fill="#FFFFFF" d="m0 0h572l28 3 25 5 21 6 26 11 15 8 17 11 16 13 16 15 12 14 9 12 12 20 8 16 9 23 6 22 4 24 1 9v602l-4 27-7 27-8 21-8 16-11 19-10 13-12 14-18 18-13 10-13 9-22 12-27 11-25 7-24 4-21 2h-577l-27-3-17-3-22-6-17-6-16-7-18-10-17-12-11-9-10-9-10-10-11-14-10-14-9-16-8-16-8-21-7-26-4-26-2-21v-566l5-40 6-25 7-21 8-18 11-20 11-16 13-15 19-19 13-10 15-10 14-8 23-10 21-7 26-6 24-3zm169 293-3 2 15 29 12 22 15 29 12 22 15 29 12 22 14 27 12 22 20 39 12 22 15 29 10 19 14 26 10 19 13 24 15 28 10 19 4 6h2l10-20 12-22 12-23 12-22 13-25 12-22 13-24 18-34 14-26 10-19 28-52 10-19 12-22 18-34 15-28 10-19 11-21v-2h-143l-9 16-13 25-12 22-18 34-12 22-17 32-7 13v2h-2l-3-9-11-25-11-21-16-24-9-11-11-12-10-10-10-8-27-18-23-12-24-9-21-5-19-2zm-60 11-24 9-17 8-19 12-17 13-13 12-11 11-9 11-7 10-7 11-12 23-8 21-6 23-4 22-1 10v31l2 20 5 23 7 20 9 21 11 19 9 12 9 11 8 9h2v2h2v2l8 7 14 11 13 9 24 13 19 8 18 6 20 5 14 2 14 1h30l18-2 25-5 26-9 21-10 17-10 9-7 5-5-26-52-10-19-9-17-7-14-7 6-7 7-13 9-15 8-16 5-17 3h-21l-16-3-18-6-15-9-10-8-9-8-9-11-7-11-6-14-4-15-1-6v-32l4-17 6-16 8-14 7-9 13-13 17-12 15-7 23-7-2-6-8-16-14-26-8-16-16-31-2-3z"/>
</svg>
