<?xml version="1.0" encoding="UTF-8"?>
<svg version="1.1" viewBox="0 0 1024 1024" width="1024" height="1024" xmlns="http://www.w3.org/2000/svg">
<path transform="translate(222)" d="m0 0h582l26 3 24 5 23 7 25 11 16 9 15 10 13 11 8 7 12 12 9 10 10 14 13 22 9 19 7 19 6 23 4 25v610l-4 26-8 29-8 20-11 21-8 13-11 14-12 13-20 20-18 13-18 10-14 7-23 9-26 7-26 4-10 1h-587l-31-4-18-4-26-8-23-10-19-11-16-12-13-11-19-19-12-16-9-14-14-27-8-22-7-27-4-28-1-11v-575l5-38 7-28 6-17 10-22 11-19 11-15 10-11 7-8 12-12 16-12 19-12 16-8 19-8 19-6 28-6zm526 207-4 8-17 42-15 36-18 43-17 41-20 48-18 43-12 29-1 1-3-24-7-27-8-21-11-22-17-25-12-14-16-17-13-10-26-17-23-12-25-9-17-4-16-2-20-1h-17l-2 3 17 33 12 22 15 29 12 22 7 13 15 10 10 9 8 8 10 15 8 17 5 19 1 8 1 24 14 27 10 19 12 23 30 56 17 32 24 44 4 2 10-19 15-28 12-23 12-22 13-25 13-23 14-27 12-22 12-23 12-22 12-23 12-22 17-32 13-24 18-34 14-26 14-27 5-9-1-4-17-14-22-18-16-13-44-36zm-413 97-24 9-17 8-20 13-18 14-9 9-8 7-9 10-13 18-9 16-9 17-8 22-6 24-4 24v41l3 22 4 17 7 20 10 23 11 18 10 13 11 13 4 4h2v2h2l2 4 9 8 13 10 14 9 22 12 23 9 19 6 18 4 18 2h41l20-3 22-5 23-8 23-11 16-10 10-9 2-3-30-60-12-22-9-18-4 2-11 11-15 10-17 8-19 5-8 1h-21l-17-3-18-6-16-9-11-9-8-7-10-13-8-14-6-16-3-13-1-8v-21l3-17 5-15 9-17 9-12 13-13 15-10 17-8 21-6 2-2-5-12-14-27-10-19-10-20-10-18-1-1z" fill="#FFFFFF"/>
</svg>
